<svg version="1.0" xmlns="http://www.w3.org/2000/svg" width="60" height="60" viewBox="0 0 373 394">
    <g fill="#B22222">
        <path class="s0"
              d="m297.1 379c-4.3-31.6 0.5-50.8 1-54.6 3-21.8 10.7-42.1 29-76.6 20.7-38.9 28.7-55.2 30.8-62.7 4.3-15.4 3.6-31.1-1.9-46.3-2.8-7.5-2.8-7.8-1.3-12.5 2.1-6.3 2.4-28.4 0.5-33-0.8-1.8-2.6-3.6-4.3-4.3-2.5-1.1-3.9-0.9-10.2 1.4-6.5 2.4-9.5 4.1-19.5 11.2-1.9 1.4-3.1 1.5-7.9 0.5-3.1-0.6-9.2-1.1-13.5-1.1h-7.8v-3.8c-0.1-13.4-6.8-28.8-17.1-39.3l-7-7.1-0.2-15.2c-0.2-13.3-0.5-15.7-2.5-20.2-2.2-4.8-5.2-7.4-8.5-7.4-0.7 0-3.9 1.3-7.2 2.8-7.4 3.5-15.6 12.1-21.5 22.5-4.1 7.2-4.4 7.4-9.3 8.6-9.3 2.1-19.6 7.9-26.9 15l-6.8 6.7-6.8-6.7c-7.3-7.2-17.6-12.9-27-15-5.1-1.2-5.3-1.4-9.2-8.5-5.5-10.1-14-19-21.5-22.6-6.5-3-7.8-3.2-11.2-1.6-1.2 0.6-3.2 3.4-4.5 6.2-2 4.5-2.3 6.9-2.5 20.2l-0.2 15.2-6.8 6.9c-3.7 3.8-8.3 9.7-10.1 13-3.7 7-7.2 19.6-7.2 26v4.3h-7.6c-4.2 0-10.5 0.5-14 1.2-6.3 1.1-6.5 1.1-9.2-1.4-4-3.8-11.9-8.3-18.9-10.8-7.5-2.7-11.3-1.8-13.5 3.3-1.9 4.6-1.6 26.7 0.5 33 1.5 4.7 1.5 5-1.3 12.5-5.5 15.2-6.2 30.9-1.9 46.3 2.1 7.5 10.1 23.8 30.8 62.7 18.3 34.5 26 54.8 29 76.6 0.5 3.8 4.4 23.6 1 56.6-0.5 5.3 14.8 6.4 16.1-1 3.8-22.8-0.5-46.6-1.1-52.6-2.8-27.6-10.7-49-35.6-95.4-26.1-48.8-27.8-53.2-27.1-70.3 0.3-5.4 0.9-10.2 1.5-10.8 0.7-0.7 1.9-0.6 3.6 0.2 3.4 1.5 8-0.2 9.6-3.7 1.6-3.6 1.4-4.5-2.1-10-1.7-2.7-4.2-7.5-5.5-10.7-2.3-5.5-4.5-17.4-3.6-19 1.1-1.9 12.7 8.3 18.8 16.6 4.4 5.9 13.5 3.4 13.5-3.7 0-3.2 0.2-3.4 4.5-3.9 4.9-0.7 7.8-0.4 17.3 2 6.1 1.6 6.4 1.5 9-0.4l2.7-2v-14.4c0-14.3 0-14.5 3.3-20.9 1.7-3.6 4.3-7.8 5.5-9.3l2.4-2.8 3.6 1.7c3 1.4 4 1.5 6.5 0.5 4.6-1.9 5.5-5.2 3.8-14.1-1.9-9.9-3-24.2-2.1-26.9 0.7-2.2 0.7-2.2 2.7-0.4 3.3 2.9 7.1 9 13.3 21 4.4 8.6 6.4 11.4 8.5 12.3 3.4 1.4 6.3 0.6 9.1-2.3l2-2.2 4.7 2.5c6.4 3.4 15.1 12.3 18.7 19.2 3.5 6.7 6.8 8.7 11.3 6.9 1.8-0.7 3.7-3.1 5.7-6.9 3.5-6.9 13.5-17 19.3-19.6 4.2-1.9 4.3-1.9 6.2 0.2 2.7 2.8 5.6 3.6 9 2.2 2.1-0.9 4.1-3.7 8.5-12.3 6.2-12 10-18.1 13.3-21 2-1.8 2-1.8 2.7 0.4 0.9 2.7-0.2 17-2.1 26.9-1.7 8.9-0.8 12.2 3.8 14.1 2.5 1 3.5 0.9 6.5-0.5l3.6-1.7 2.4 2.8c1.2 1.5 3.8 5.7 5.5 9.3 3.3 6.4 3.3 6.7 3.3 20.9v14.4l2.7 2c2.6 1.9 2.9 2 9 0.4 9.5-2.4 12.4-2.7 17.3-2 4.3 0.5 4.5 0.7 4.5 3.9 0 7.1 9.1 9.6 13.5 3.7 5.8-7.8 18.3-19 18.6-16.6 0.9 7.4-2.4 18.7-8.2 28.4-4.3 7.2-4.4 7.7-2.8 11.3 1.6 3.5 6.2 5.2 9.6 3.7 1.7-0.8 2.9-0.9 3.6-0.2 1.6 1.6 2.1 18.4 0.8 25.3-1.5 7.8-7 19.3-26.6 56.3-25.9 48.7-32.5 66.5-35.4 95.4-0.5 5-2 26.2-1 52.1 0.4 9.9 17 6.6 16-1z" />
        <path fill-rule="evenodd" class="s0"
              d="m164.9 85.5c11.6 12.2 14.6 27.1 9 44-5.3 16-18.6 24.5-33.8 21.5-21.2-4.1-36.8-24.1-34.7-44.4 1.9-17.5 11.2-30.6 23.9-33.6 11.4-2.7 26.1 2.4 35.6 12.5zm-35.5 4.3c-7 4.5-10.6 20.4-6.7 29.3 4.2 9.5 12.3 15.7 21.5 16.5 4.1 0.4 6 0.1 8.4-1.4 7-4.5 10.6-20.4 6.7-29.3-2.7-5.9-6.6-10.4-11.9-13.5-5.9-3.5-13.9-4.2-18-1.6z" />
        <path fill-rule="evenodd" class="s0"
              d="m262 94.5c5.7 17.6 2 33.6-10.7 45.6-5.9 5.6-13.3 9.4-21.4 10.9-19 3.7-33.9-10-36.5-33.6-1.2-11.6 3.9-24.6 13.1-33.3 5.8-5.5 11-8.4 18.8-10.6 15.9-4.5 31.2 4.3 36.7 21zm-49.5 7c-2.7 4.3-3 5.7-3 12.9 0 6.5 0.5 9.1 2.4 12.9 3.3 6.7 7.1 9 13.9 8.3 9.2-0.8 17.3-7 21.5-16.5 3.9-9 0.3-24.9-6.7-29.2-8.1-4.9-21.2 0.5-28.1 11.6z" />
        <path fill-rule="evenodd" class="s0"
              d="m111.7 157.3c2.1 8.8 0.8 18.1-3.7 27.3-7.1 14.5-21.3 18.9-37.2 11.4-14.8-6.9-23.5-23.1-21-39.2 2.1-13.8 9.4-24.1 19.2-27.3 16.8-5.4 37.9 8.4 42.7 27.8zm-35.8-13.3c-8.4 0.1-13.8 16.8-8.9 27.3 3.5 7.5 11.5 12.7 19.1 12.7 8.4-0.1 13.8-16.8 8.9-27.3-2.6-5.5-7.5-9.9-12.9-11.6-2.1-0.6-4.9-1.1-6.2-1.1z" />
        <path fill-rule="evenodd" class="s0"
              d="m300.6 137.5c6.8 2 11.8 6.5 15.4 13.9 4.5 9.2 5.8 18.6 3.7 27.2-3 11.8-9.8 20.2-21 25.4-15.7 7.5-29.6 3.2-36.7-11.4-4.5-9.2-5.8-18.6-3.7-27.2 3.5-14.2 13.3-24.1 27.7-28 6-1.7 8.7-1.7 14.6 0.1zm-25.6 27c-1.8 3.8-2.2 5.8-1.8 10.9 0.8 9.7 5.2 16.5 10.7 16.6 7.6 0 15.6-5.2 19.1-12.7 1.8-3.9 2.1-6 1.7-10.8-0.5-6.6-2.7-12-6.1-14.7-5.9-4.8-18.9 1.1-23.6 10.7z" />
        <path fill-rule="evenodd" class="s0"
              d="m217.3 173c2.4 2.7 6.3 8.4 8.5 12.8 4.7 9 5.3 9.6 14.7 14.7 16.6 9.1 24.7 16.4 29.3 26.3 2.3 4.9 2.7 7 2.7 15.2 0 8.6-0.3 10.1-3.2 16.2-3.9 8.3-9.7 14.2-17.9 18-12.4 5.8-29.8 4.6-42-2.9-14.8-9.1-14.1-8.8-24.4-8.8h-9.6l-10.3 6.2c-7.8 4.7-12.3 6.6-17.9 7.9-20.6 4.6-38.4-3.3-46.5-20.4-2.9-6.1-3.2-7.6-3.2-16.2 0-8.2 0.4-10.3 2.7-15.2 4.6-9.9 12.7-17.2 29.3-26.3 9.4-5.1 10-5.7 14.7-14.7 2.2-4.4 6.1-10.1 8.5-12.8 5-5.6 14.3-10.7 21.9-11.9 17.3-2.9 33.4 1.6 42.7 11.9zm-30.8 3.3c-16.2-0.5-21.1 2.6-29.3 18.4-5.3 10.2-7.7 12.4-20.9 20-18.7 10.6-23.3 16.1-23.3 27.3 0 9.2 4.4 16.2 12.9 20.5 2.7 1.4 5.3 1.6 12.2 1.3 8.6-0.4 8.8-0.5 18.5-6.3 20.7-12.5 36.1-12.5 56.8 0 9.7 5.8 9.9 5.9 18.5 6.3 7.3 0.4 9.4 0.1 12.7-1.6 8.2-4.2 12.4-11.1 12.4-20.2 0-11.2-4.6-16.6-23.3-27.3-13.2-7.6-15.6-9.8-20.9-20-5.2-9.9-7.9-13.2-13.2-15.9-3.1-1.7-6.3-2.2-13.1-2.5z" />
        </g>
    </svg>
